Coordinates
version=1
nRows=11
nColumns=63
inDegrees=yes

Units are S.I. units (second, meters, Newtons, ...)
If the header above contains a line with 'inDegrees', this indicates whether rotational values are in degrees (yes) or radians (no).

endheader
time	pelvis_tilt	pelvis_list	pelvis_rotation	pelvis_tx	pelvis_ty	pelvis_tz	hip_flexion_r	hip_adduction_r	hip_rotation_r	knee_angle_r	knee_angle_r_beta	ankle_angle_r	subtalar_angle_r	mtp_angle_r	hip_flexion_l	hip_adduction_l	hip_rotation_l	knee_angle_l	knee_angle_l_beta	ankle_angle_l	subtalar_angle_l	mtp_angle_l	L5_S1_Flex_Ext	L5_S1_Lat_Bending	L5_S1_axial_rotation	L4_L5_Flex_Ext	L4_L5_Lat_Bending	L4_L5_axial_rotation	L3_L4_Flex_Ext	L3_L4_Lat_Bending	L3_L4_axial_rotation	L2_L3_Flex_Ext	L2_L3_Lat_Bending	L2_L3_axial_rotation	L1_L2_Flex_Ext	L1_L2_Lat_Bending	L1_L2_axial_rotation	L1_T12_Flex_Ext	L1_T12_Lat_Bending	L1_T12_axial_rotation	Abs_r3	Abs_r2	Abs_r1	Abs_t1	Abs_t2	neck_flexion	neck_bending	neck_rotation	arm_flex_r	arm_add_r	arm_rot_r	elbow_flex_r	pro_sup_r	wrist_flex_r	wrist_dev_r	arm_flex_l	arm_add_l	arm_rot_l	elbow_flex_l	pro_sup_l	wrist_flex_l	wrist_dev_l
2.183333	-0.341137	-3.274505	81.247653	0.201730	0.898524	0.621827	1.305613	-1.409495	-3.085278	10.062418	0.175622	29.646499	15.712595	0.000000	-1.258434	0.994641	6.538368	6.564277	0.114568	22.550071	-14.124945	0.000000	-0.102420	0.203452	0.794166	-0.190205	0.270591	0.843801	-0.168266	0.494672	0.843801	-0.117056	0.494672	0.694895	-0.095108	0.414878	0.645260	-0.058523	0.315146	0.595624	-0.731579	2.301484	4.416912	0.000000	0.000000	21.259059	-0.417601	3.274359	5.777597	-11.824237	114.373033	9.396815	4.803098	-2.581220	-12.085063	8.733638	-10.182475	116.531705	13.691152	10.281005	-7.474142	-12.782176
2.200000	-0.193255	-3.258284	81.255190	0.201255	0.898470	0.621752	1.261984	-1.289815	-3.132544	10.051872	0.175438	29.572150	15.757206	0.000000	-1.289017	0.880187	6.398623	6.697841	0.116899	22.562294	-14.222679	0.000000	-0.099369	0.234266	0.795125	-0.184538	0.311573	0.844820	-0.163254	0.569594	0.844820	-0.113569	0.569594	0.695734	-0.092274	0.477715	0.646039	-0.056780	0.362878	0.596344	-0.709784	2.650061	4.422245	0.000000	0.000000	21.277975	-0.710721	3.310723	5.814025	-11.961584	114.780063	9.319916	4.693926	-2.624998	-12.111506	8.777639	-9.993785	116.521259	13.704448	10.363654	-7.489075	-12.674368
2.216667	-0.050436	-3.241488	81.255525	0.200779	0.898397	0.621673	1.214300	-1.174741	-3.134735	10.043619	0.175294	29.489119	15.778540	0.000000	-1.316519	0.770529	6.244718	6.836622	0.119322	22.592117	-14.312413	0.000000	-0.096177	0.264882	0.799222	-0.178610	0.352293	0.849174	-0.158009	0.644034	0.849174	-0.109921	0.644034	0.699319	-0.089310	0.540148	0.649368	-0.054956	0.410302	0.599417	-0.686982	2.996399	4.445034	0.000000	0.000000	21.375475	-0.979372	3.331344	5.834115	-12.104330	115.085957	9.258923	4.627602	-2.701935	-12.163103	8.831360	-9.799873	116.559343	13.721619	10.430098	-7.515395	-12.544325
2.233333	0.087217	-3.228703	81.269820	0.200300	0.898313	0.621594	1.161606	-1.059330	-3.080250	10.028379	0.175028	29.386706	15.734708	0.000000	-1.329040	0.662350	6.074291	6.988019	0.121964	22.640629	-14.361300	0.000000	-0.093253	0.294624	0.801852	-0.173179	0.391850	0.851968	-0.153205	0.716349	0.851968	-0.106578	0.716349	0.701621	-0.086594	0.600797	0.651505	-0.053284	0.456372	0.601389	-0.666093	3.332845	4.459662	0.000000	0.000000	21.555789	-1.216462	3.335473	5.841485	-12.242480	115.271444	9.210690	4.632843	-2.817205	-12.242215	8.891749	-9.614346	116.593030	13.750783	10.518028	-7.560726	-12.409428
2.250000	0.205515	-3.219311	81.269775	0.199872	0.898224	0.621503	1.118850	-0.961102	-2.986961	10.031048	0.175075	29.291741	15.680173	0.000000	-1.339333	0.573620	5.941815	7.124983	0.124354	22.654827	-14.473371	0.000000	-0.090848	0.321244	0.808202	-0.168713	0.427254	0.858715	-0.149254	0.781072	0.858715	-0.103830	0.781072	0.707177	-0.084361	0.655080	0.656664	-0.051910	0.497607	0.606152	-0.648916	3.633975	4.494979	0.000000	0.000000	21.803222	-1.423423	3.300253	5.850536	-12.356073	115.585476	9.144269	4.555027	-2.908544	-12.331976	8.961967	-9.442537	116.696646	13.785191	10.533487	-7.592310	-12.272073
2.266667	0.299848	-3.211286	81.270589	0.199513	0.898137	0.621418	1.086988	-0.888541	-2.936260	10.057898	0.175543	29.219914	15.693994	0.000000	-1.341040	0.502760	5.808984	7.255072	0.126625	22.663114	-14.555938	0.000000	-0.089904	0.343354	0.816141	-0.166960	0.456660	0.867150	-0.147702	0.834830	0.867150	-0.102751	0.834830	0.714124	-0.083484	0.700167	0.663115	-0.051371	0.531855	0.612106	-0.642172	3.884085	4.539132	0.000000	0.000000	22.099365	-1.592644	3.209055	5.860766	-12.453629	115.657528	9.111902	4.635754	-2.996550	-12.413804	9.014450	-9.344036	116.308060	13.911063	10.983235	-7.691686	-12.107079
2.283333	0.364475	-3.203989	81.269459	0.199236	0.898063	0.621353	1.069413	-0.842304	-2.870034	10.109846	0.176450	29.169998	15.693826	0.000000	-1.335021	0.458602	5.719289	7.367882	0.128594	22.642941	-14.669783	0.000000	-0.090266	0.360097	0.824214	-0.167633	0.478928	0.875727	-0.148298	0.875539	0.875727	-0.103165	0.875539	0.721187	-0.083821	0.734309	0.669674	-0.051578	0.557789	0.618160	-0.644760	4.073484	4.584031	0.000000	0.000000	22.410597	-1.707825	3.092122	5.894217	-12.507104	115.852694	9.053707	4.641676	-2.993114	-12.454265	9.074519	-9.254067	116.178506	13.991599	11.198409	-7.744103	-11.974969
2.300000	0.392865	-3.190277	81.257962	0.199080	0.898002	0.621318	1.063618	-0.829894	-2.799987	10.193250	0.177906	29.151140	15.697950	0.000000	-1.327480	0.445512	5.643388	7.462578	0.130247	22.617714	-14.763301	0.000000	-0.092146	0.370305	0.831498	-0.171124	0.492505	0.883467	-0.151387	0.900359	0.883467	-0.105314	0.900359	0.727561	-0.085567	0.755125	0.675592	-0.052652	0.573602	0.623624	-0.658189	4.188962	4.624543	0.000000	0.000000	22.685376	-1.732944	2.996424	5.958115	-12.510693	116.158199	8.973051	4.599884	-2.877428	-12.437644	9.110377	-9.220608	115.795389	14.099035	11.532805	-7.789148	-11.863686
2.316667	0.386246	-3.164036	81.255439	0.199009	0.897965	0.621310	1.056961	-0.854188	-2.771393	10.301704	0.179799	29.160680	15.737229	0.000000	-1.327752	0.464851	5.624522	7.529401	0.131413	22.578870	-14.860714	0.000000	-0.095580	0.374232	0.833045	-0.177502	0.497728	0.885111	-0.157028	0.909907	0.885111	-0.109238	0.909907	0.728915	-0.088756	0.763133	0.676849	-0.054614	0.579685	0.624784	-0.682719	4.233383	4.633148	0.000000	0.000000	22.872104	-1.656599	2.944694	6.052217	-12.476981	116.426986	8.900364	4.593425	-2.660076	-12.351532	9.127872	-9.195986	115.663125	14.130094	11.615168	-7.772290	-11.805634
2.333333	0.347200	-3.122207	81.249801	0.199045	0.897948	0.621349	1.044931	-0.908693	-2.733294	10.426381	0.181975	29.188916	15.765072	0.000000	-1.337012	0.513198	5.622820	7.579192	0.132282	22.541680	-14.922828	0.000000	-0.100764	0.372141	0.828878	-0.187128	0.494948	0.880683	-0.165544	0.904824	0.880683	-0.115163	0.904824	0.725268	-0.093569	0.758871	0.673463	-0.057576	0.576447	0.621658	-0.719744	4.209737	4.609971	0.000000	0.000000	22.938695	-1.484912	2.946629	6.185884	-12.398224	116.794822	8.816219	4.542370	-2.342220	-12.205251	9.116226	-9.200459	115.476986	14.131892	11.631625	-7.726251	-11.799907
2.350000	0.281233	-3.069067	81.257678	0.199149	0.897943	0.621446	1.027010	-0.987128	-2.704773	10.556462	0.184245	29.236389	15.788948	0.000000	-1.348685	0.584624	5.648911	7.620761	0.133007	22.508281	-14.949552	0.000000	-0.107134	0.365024	0.815583	-0.198958	0.485482	0.866557	-0.176010	0.887519	0.866557	-0.122443	0.887519	0.713635	-0.099484	0.744357	0.662661	-0.061216	0.565422	0.611687	-0.765244	4.129225	4.536028	0.000000	0.000000	22.873860	-1.250118	2.980617	6.354798	-12.285411	117.172575	8.741343	4.483433	-1.973454	-12.015375	9.078093	-9.207402	115.453984	14.053096	11.472555	-7.638854	-11.840130
